<svg xmlns="http://www.w3.org/2000/svg" viewBox="0 0 231 134" width="231" height="134">
	<style>
		tspan { white-space:pre }
		.shp0 { fill: #dedede }
		.txt1 { font-size: 18px;fill: #999591;font-family: "Roboto Slab";font-weight: 400;letter-spacing: 2px }
		.txt2 { font-size: 16px;fill: #999591;font-family: "Roboto Slab";font-weight: 400;letter-spacing: 1.5px }
		.txt3 { font-size: 38px;fill: #f4ede8;font-family: "Merienda";font-weight: 400;letter-spacing: 1px }
		.shp4 { fill: #999591 }
	</style>
	<path id="Layer" class="shp0" d="M0 101.07L230.03 101.07L230.03 103.08L0 103.08L0 101.07Z" />
	<path id="Layer" class="shp0" d="M0 30.98L230.03 30.98L230.03 32.98L0 32.98L0 30.98Z" />
	<text id="Jonas &amp; Márcia " style="transform: matrix(1,0,0,1,57,124)" >
		<tspan x="-10" y="0" class="txt1">Jonas &amp; Márcia</tspan>
	</text>
	<text id="Salon " style="transform: matrix(1,0,0,1,98,20)" >
		<tspan x="-5" y="0" class="txt2">Salon</tspan>
	</text>
	<text id="Hair Shop " style="transform: matrix(1,0,0,1,29,75.8)" >
		<tspan x="5" y="3" class="txt3">Hair Shop</tspan>
	</text>
	<path id="Layer" class="shp4" d="M210.95 64.03C209.28 64.03 207.93 65.37 207.93 67.03C207.93 68.69 209.28 70.03 210.95 70.03C212.61 70.03 213.96 68.69 213.96 67.03C213.96 65.37 212.61 64.03 210.95 64.03Z" />
	<path id="Layer" class="shp4" d="M19.09 64.03C17.42 64.03 16.07 65.37 16.07 67.03C16.07 68.69 17.42 70.03 19.09 70.03C20.75 70.03 22.1 68.69 22.1 67.03C22.1 65.37 20.75 64.03 19.09 64.03Z" />
</svg>
